<?xml version="1.0" encoding="utf-8"?>
<!-- Generator: Adobe Illustrator 26.0.1, SVG Export Plug-In . SVG Version: 6.00 Build 0)  -->
<svg version="1.1" id="Layer_1" xmlns="http://www.w3.org/2000/svg" xmlns:xlink="http://www.w3.org/1999/xlink" x="0px" y="0px"
	 viewBox="0 0 1073.36 321.55" style="enable-background:new 0 0 1073.36 321.55;" xml:space="preserve">
<style type="text/css">
	.st0{fill:#FFFFFF;}
</style>
<g>
	<path class="st0" d="M532.39,245.82c-0.81,0-1.61-0.31-2.23-0.92l-21.02-21.04c-0.59-0.59-0.92-1.39-0.92-2.23
		c0-0.84,0.34-1.64,0.93-2.23l117.16-116.24c0.59-0.58,1.39-0.91,2.22-0.91l134.62-0.02c0.83,0,1.63,0.33,2.22,0.92
		c0.59,0.59,0.92,1.39,0.92,2.23v136.65c0,1.74-1.41,3.15-3.15,3.15h-0.24c-0.83,0-1.63-0.33-2.22-0.92l-30.54-30.54
		c-0.59-0.59-0.92-1.39-0.92-2.22v-72.18l-87.48,0.01L534.6,244.91C533.99,245.52,533.19,245.82,532.39,245.82z"/>
</g>
<g>
	<path class="st0" d="M303.33,244.96c-1.74,0-3.15-1.41-3.15-3.15V105.4c0-1.74,1.41-3.15,3.15-3.15l134.78-0.02
		c0.84,0,1.65,0.34,2.24,0.93l72.67,73.46c1.22,1.23,1.21,3.21-0.01,4.44l-21.08,21.08c-0.59,0.59-1.39,0.92-2.22,0.92c0,0,0,0,0,0
		c-0.83,0-1.64-0.33-2.23-0.92l-62.74-62.83l-87.48,0.01v68.57h100.52c0.83,0,1.63,0.33,2.22,0.92l30.78,30.78
		c0.9,0.9,1.17,2.25,0.68,3.43s-1.63,1.94-2.91,1.94H303.33z"/>
</g>
<g>
	<path class="st0" d="M857.03,311.73c-0.82,0-1.62-0.32-2.23-0.92l-15.39-15.39c-0.59-0.59-0.92-1.39-0.92-2.22V11.94
		c0-1.27,0.77-2.42,1.94-2.91c0.39-0.16,0.8-0.24,1.2-0.24c0.82,0,1.62,0.32,2.23,0.92l15.39,15.39c0.59,0.59,0.92,1.39,0.92,2.22
		v77.19l143.4,78.16V87.81c0-1.27,0.77-2.42,1.94-2.91c0.39-0.16,0.8-0.24,1.2-0.24c0.82,0,1.62,0.32,2.23,0.92l30.78,30.78
		c0.59,0.59,0.92,1.39,0.92,2.22V239.8c0,1.11-0.58,2.14-1.54,2.71c-0.49,0.29-1.05,0.44-1.61,0.44c-0.52,0-1.04-0.13-1.51-0.38
		l-175.82-95.83v161.85c0,1.27-0.77,2.42-1.94,2.91C857.85,311.65,857.44,311.73,857.03,311.73z"/>
</g>
<g>
	<path class="st0" d="M206.65,312.8c-0.41,0-0.81-0.08-1.2-0.24c-1.18-0.49-1.94-1.63-1.94-2.91V145.54L53.81,223.7
		c-0.46,0.24-0.96,0.36-1.46,0.36c-0.82,0-1.62-0.32-2.23-0.92l-22.81-22.81c-0.71-0.71-1.04-1.71-0.89-2.7s0.77-1.85,1.65-2.31
		l175.42-91.58V29.1c0-0.83,0.33-1.63,0.92-2.22l15.39-15.39c0.6-0.6,1.41-0.92,2.23-0.92c0.41,0,0.81,0.08,1.2,0.24
		c1.18,0.49,1.94,1.63,1.94,2.91v280.56c0,0.83-0.33,1.63-0.92,2.22l-15.39,15.38C208.28,312.48,207.47,312.8,206.65,312.8z"/>
</g>
</svg>
